<svg width="1200" height="627" viewBox="0 0 1200 627" fill="none" xmlns="http://www.w3.org/2000/svg">
  <g clip-path="url(#clip0_347_9713)">
    <rect width="1200" height="627" fill="#0C131D"/>
    <path fill-rule="evenodd" clip-rule="evenodd" d="M642.963 -23.6424C649.841 -27.0252 658.158 -24.1923 661.541 -17.3148L963.929 597.452C975.206 620.377 965.762 648.102 942.838 659.378L49.3833 1098.85C42.5058 1102.23 34.1882 1099.4 30.8053 1092.52L-271.583 477.752C-282.859 454.827 -273.416 427.101 -250.491 415.825L642.963 -23.6424ZM-92.1797 842.474L-23.2827 982.544C-40.8266 946.828 -17.357 899.341 29.1518 876.464L23.852 865.69C-22.6568 888.566 -74.5972 878.171 -92.1797 842.474Z" fill="#0C73FE"/>
    <path fill-rule="evenodd" clip-rule="evenodd" d="M1866.32 -524.154C1861.75 -533.993 1850.07 -538.26 1840.23 -533.686L821.837 -60.2143C789.04 -44.9662 774.814 -6.0191 790.063 26.7764L1263.56 1045.11C1268.13 1054.95 1279.82 1059.22 1289.66 1054.64L2308.05 581.17C2340.85 565.922 2355.07 526.975 2339.82 494.18L1866.32 -524.154ZM1179.06 863.359L1072.89 635.034C1099.98 693.227 1168.38 718.804 1225.68 692.161L1233.85 709.724C1176.54 736.367 1152.02 805.143 1179.06 863.359ZM1688.32 159.604L1761.63 125.518L1727.54 52.2064C1746.37 92.6953 1728.81 140.779 1688.32 159.604Z" fill="#0C73FE"/>
  </g>
  <defs>
    <clipPath id="clip0_347_9713">
      <rect width="1200" height="627" fill="white"/>
    </clipPath>
  </defs>
</svg>