<svg width="1200" height="600" viewBox="0 0 1200 600" fill="none" xmlns="http://www.w3.org/2000/svg">
  <path fill-rule="evenodd" clip-rule="evenodd" d="M826.882 124.338L576.849 48.6334C571.601 47.0445 568.435 41.7212 569.548 36.3606L615.766 -186.128C616.954 -191.85 613.272 -197.45 607.541 -198.636L597.199 -200.777C591.455 -201.967 585.836 -198.271 584.664 -192.532L496.517 239.035L308.172 195.109L147.102 67.4266L201.444 -123.033C203.048 -128.652 199.785 -134.505 194.156 -136.106L183.964 -139.005C178.335 -140.605 172.472 -137.347 170.869 -131.728L120.143 46.0557L-130.934 -152.978L-163.883 -111.55L237.599 206.712L-245.803 370.366C-251.346 372.243 -254.315 378.25 -252.436 383.783L-249.032 393.803C-247.153 399.336 -241.136 402.301 -235.593 400.424L10.6233 317.068C16.5614 315.058 22.9399 318.606 24.3518 324.705L81.6404 572.178L-114.592 688.745L-87.4986 734.205L308.82 498.784L338.589 683.713C339.518 689.482 344.956 693.407 350.734 692.48L361.197 690.801C366.976 689.874 370.907 684.446 369.979 678.677L338.209 481.326L610.064 319.839L885.347 384.041L807.757 726.753C806.466 732.452 810.048 738.117 815.757 739.405L826.093 741.737C831.802 743.026 837.476 739.45 838.766 733.75L916.307 391.261L941.615 397.164L1157.1 366.37L1207.55 675.809C1208.49 681.576 1213.94 685.49 1219.72 684.551L1230.18 682.851C1235.95 681.912 1239.87 676.476 1238.93 670.709L1188.57 361.872L1612.85 301.241L1605.34 248.876L943.968 343.389L675.732 280.831L788.068 214.102L1299.33 -128.824L1269.78 -172.733L826.882 124.338ZM527.348 246.225L601.322 263.477L759.724 169.383L792.813 147.189L572.285 80.4185C566.293 78.6041 560.04 82.3452 558.817 88.4765L527.348 246.225ZM110.326 555.139L202.026 500.667L128.462 288.279C126.557 282.78 120.563 279.849 115.043 281.717L61.0543 299.995C55.8988 301.74 52.9066 307.102 54.1324 312.397L110.326 555.139ZM229.925 484.094L158.612 278.206C156.691 272.66 159.658 266.613 165.224 264.729L267.225 230.196L284.537 243.92L535.654 302.485L229.925 484.094Z" fill="#0085FF" fill-opacity="0.57"/>
  <path d="M1366.33 249.089C1366.75 254.917 1371.82 259.298 1377.66 258.876L1388.23 258.111C1394.07 257.688 1398.46 252.621 1398.04 246.794L1388.32 113.037C1387.95 107.884 1391.36 103.215 1396.38 101.992L1635.67 43.8216C1641.36 42.4392 1644.85 36.7163 1643.46 31.0392L1640.96 20.7597C1639.57 15.0825 1633.84 11.6009 1628.15 12.9833L1397.51 69.051C1391.14 70.5991 1384.91 66.0628 1384.44 59.5366L1371.38 -120.215C1370.96 -126.043 1365.88 -130.424 1360.05 -130.002L1349.48 -129.237C1343.64 -128.814 1339.25 -123.747 1339.67 -117.92L1366.33 249.089Z" fill="#0085FF" fill-opacity="0.57"/>
</svg>