<svg width="48" height="48" viewBox="0 0 48 48" fill="none" xmlns="http://www.w3.org/2000/svg">
  <path fill-rule="evenodd" clip-rule="evenodd" d="M8 14C8 10.6863 10.6863 8 14 8H34C37.3137 8 40 10.6863 40 14V30C40 33.3137 37.3137 36 34 36H17.0029L12 40H8V14ZM20 17C22.2091 17 24 19.2386 24 22H16C16 19.2386 17.7909 17 20 17ZM32 17C34.2091 17 36 19.2386 36 22H28C28 19.2386 29.7909 17 32 17Z" fill="#F5A623"/>
  <path fill-rule="evenodd" clip-rule="evenodd" d="M34.4004 18C33.7318 17.3721 32.9007 17 32 17C31.0993 17 30.2682 17.3721 29.5996 18C28.6283 18.9122 28 20.3644 28 22H36C36 21.9967 36 21.9934 36 21.9901C35.9975 20.3586 35.3698 18.9104 34.4004 18ZM40 14C40 10.6863 37.3137 8 34 8H14C10.6863 8 8 10.6863 8 14V40H12L17.0029 36H34C37.3137 36 40 33.3137 40 30V14ZM18.4054 40H34C39.5228 40 44 35.5229 44 30V14C44 8.47716 39.5228 4 34 4H14C8.47715 4 4 8.47716 4 14V44H14L18.4054 40ZM16 22C16 20.3644 16.6283 18.9122 17.5996 18C18.2682 17.3721 19.0993 17 20 17C20.9007 17 21.7318 17.3721 22.4004 18C23.3717 18.9122 24 20.3644 24 22H16Z" fill="white"/>
</svg>