<svg width="48" height="48" viewBox="0 0 48 48" fill="none" xmlns="http://www.w3.org/2000/svg">
  <path d="M9.26608 30.3445L9.22732 30.2889C4.32748 23.2676 5.00542 13.5384 11.2718 7.27208C18.3012 0.242641 29.6982 0.24264 36.7276 7.27208C42.991 13.5354 43.6822 23.264 38.7799 30.2889L38.7408 30.3451L26.9997 45.9998H20.9988L9.26608 30.3445Z" fill="white"/>
  <path fill-rule="evenodd" clip-rule="evenodd" d="M25 41.9998H23L12.5079 27.9998C8.69809 22.5405 9.22897 14.972 14.1005 10.1005C19.5678 4.63316 28.4322 4.63316 33.8995 10.1005C38.771 14.972 39.3098 22.5405 35.5 27.9998L25 41.9998ZM24 26C27.3137 26 30 23.3137 30 20C30 16.6863 27.3137 14 24 14C20.6863 14 18 16.6863 18 20C18 23.3137 20.6863 26 24 26Z" fill="#F5A623"/>
</svg>