<svg width="48" height="48" viewBox="0 0 48 48" fill="none" xmlns="http://www.w3.org/2000/svg">
  <g clip-path="url(#clip0_147_4576)">
    <path d="M27.5 0C29.173 2.34219 32.987 7.78276 33 13.4993L38 11.4993C41.0675 15.3975 44 23.228 44 27.9999C44 39.0456 35.0457 47.9999 24 47.9999C12.9543 47.9999 4 39.0456 4 27.9999C4 17.7124 9.92009 12.8243 14 9.49934C15.2762 8.45926 17.1661 7.2118 18.204 5.92002C19.7467 4 20 2.10629 20 1.5L27.5 0Z" fill="white"/>
    <path fill-rule="evenodd" clip-rule="evenodd" d="M23 4.50018L25 4C26.7984 6.51776 29.4844 12.7091 26.9487 20.3164C26.2842 22.3097 26.658 23.6865 27.3393 24.5266C28.0447 25.3966 29.2071 25.8545 30.417 25.7536C31.608 25.6544 32.8101 25.0131 33.5756 23.7119C34.346 22.4021 34.7114 20.0829 34 17L36 16C38.4563 19.1214 40 24.0299 40 28.0002C40 36.8367 32.8366 44.0002 24 44.0002C15.1634 44.0002 8 36.8367 8 28.0002C8 19.7547 12.9512 15.7197 17.0454 12.3831L17.1009 12.3379C20.4922 9.5739 23 7.94851 23 4.50018ZM19.5 22.5C17.4798 24.1517 16 27.0328 16 29.9999C16 34.8409 19.4605 38.9999 24 38.9999C28.254 38.9999 31.6077 35.434 32 31L30 30.5C29.2385 32.0643 28.2601 32.7785 27.1748 32.9214C22.8517 33.4905 21.1616 26.5262 21 23.5L19.5 22.5Z" fill="#F5A623"/>
  </g>
  <defs>
    <clipPath id="clip0_147_4576">
      <rect width="48" height="48" fill="white"/>
    </clipPath>
  </defs>
</svg>