<svg height="52" viewBox="0 0 249 52" fill="none" xmlns="http://www.w3.org/2000/svg">
  <g clip-path="url(#clip0_148_5630)">
    <path d="M21.6794 27.95C21.1937 27.95 20.8 28.3437 20.8 28.8294V29.2815L20.8011 29.3035C20.8926 31.1338 22.2735 32.9667 24.623 33.1474L24.6567 33.15H25.1206C25.6063 33.15 26 32.7563 26 32.2706C26 31.7849 25.6063 31.3912 25.1206 31.3912H24.7264C23.3759 31.2727 22.6191 30.2576 22.5588 29.2358V28.8294C22.5588 28.3437 22.1651 27.95 21.6794 27.95Z" fill="white"/>
    <path fill-rule="evenodd" clip-rule="evenodd" d="M24.0911 13.7401C19.5457 13.9402 16.0318 17.6713 15.8036 22.2154C15.6892 24.4945 15.6 26.5323 15.6 28.4266C15.6 30.1936 15.6776 31.9626 15.7809 33.9959C16.0106 38.5174 19.5188 42.2149 24.0416 42.4176C24.7265 42.4484 25.3903 42.4666 26 42.4666C26.6287 42.4666 27.315 42.4472 28.0227 42.4147C32.5161 42.2086 36.0111 38.5547 36.2326 34.062C36.3291 32.1061 36.4 30.3582 36.4 28.4266C36.4 26.2693 36.3211 24.2791 36.2165 22.1293C35.9974 17.6228 32.4998 13.9484 27.9926 13.7439C27.2955 13.7122 26.6197 13.6933 26 13.6933C25.405 13.6933 24.7585 13.7107 24.0911 13.7401ZM18.3313 22.7365C18.5037 19.2731 21.1335 16.4441 24.521 16.288C25.0383 16.2642 25.5397 16.25 26 16.25C26.4832 16.25 27.0117 16.2657 27.5564 16.2917C30.9084 16.4518 33.521 19.2276 33.6832 22.6555C33.6986 22.9822 33.7131 23.2608 33.7263 23.5132C33.7708 24.3688 33.8 24.9295 33.8 26.0918C33.8 27.2384 33.7681 27.891 33.7202 28.8724C33.7125 29.0301 33.7044 29.1964 33.6959 29.3745C33.5336 32.7892 30.9237 35.5454 27.5847 35.707C27.0301 35.7338 26.4915 35.75 26 35.75C25.5263 35.75 25.0089 35.7349 24.4755 35.7098C21.1088 35.5513 18.4846 32.7539 18.3135 29.3116C18.3023 29.0869 18.2917 28.8811 18.2817 28.6884L18.2816 28.6869C18.2327 27.7394 18.2 27.1071 18.2 26.0918C18.2 25.1165 18.2302 24.5809 18.2759 23.7676C18.2926 23.4721 18.3113 23.1398 18.3313 22.7365Z" fill="white"/>
    <path fill-rule="evenodd" clip-rule="evenodd" d="M14.8425 3.25H37.1575C42.0553 3.25 43.3211 3.7582 44.5442 4.41234C45.8646 5.11852 46.8815 6.13537 47.5877 7.4558C48.2418 8.67894 48.75 9.94475 48.75 14.8425V15.6139C48.75 15.9685 48.4657 16.2573 48.1113 16.2723C48.0022 16.2769 47.892 16.2822 47.7809 16.288C44.8169 16.4441 42.5157 19.2731 42.3649 22.7365C42.3475 23.1372 42.3312 23.4683 42.3167 23.7624L42.3165 23.766L42.3164 23.7676C42.2764 24.5809 42.25 25.1165 42.25 26.0918C42.25 27.1071 42.2786 27.7396 42.3214 28.6872C42.3302 28.8803 42.3395 29.0864 42.3493 29.3116C42.499 32.7539 44.7952 35.5513 47.741 35.7098C47.8656 35.7165 47.9892 35.7225 48.1113 35.7277C48.4657 35.7427 48.75 36.0315 48.75 36.3861V37.1575C48.75 42.0552 48.2418 43.3211 47.5877 44.5442C46.8815 45.8646 45.8646 46.8815 44.5442 47.5877C43.3211 48.2418 42.0553 48.75 37.1575 48.75H14.8425C9.94476 48.75 8.67894 48.2418 7.4558 47.5877C6.13537 46.8815 5.11852 45.8646 4.41234 44.5442C3.7582 43.3211 3.25 42.0552 3.25 37.1575V36.3861C3.25 36.0315 3.53434 35.7427 3.88869 35.7277C4.028 35.7218 4.1692 35.7148 4.31162 35.707C7.23326 35.5454 9.51692 32.7892 9.65893 29.3745C9.66622 29.1992 9.67322 29.0354 9.67986 28.88L9.6802 28.8722C9.72213 27.8907 9.75 27.2385 9.75 26.0918C9.75 24.9295 9.72444 24.3683 9.68546 23.5126C9.67397 23.2603 9.6613 22.9822 9.64778 22.6555C9.50589 19.2276 7.21988 16.4518 4.28687 16.2917C4.15284 16.2844 4.01993 16.2779 3.8887 16.2723C3.53435 16.2573 3.25 15.9685 3.25 15.6139V14.8425C3.25 9.94475 3.7582 8.67894 4.41234 7.4558C5.11852 6.13537 6.13537 5.11852 7.4558 4.41234C8.67894 3.7582 9.94476 3.25 14.8425 3.25ZM23.9921 11.4889C18.2054 11.7436 13.8356 16.4792 13.5532 22.1023C13.4388 24.3814 13.3467 26.4698 13.3467 28.4266C13.3467 30.2555 13.4271 32.074 13.5306 34.1101C13.8156 39.7191 18.187 44.4107 23.9408 44.6686C24.6489 44.7004 25.3477 44.7199 26.0001 44.7199C26.6727 44.7199 27.395 44.6992 28.126 44.6656C33.8379 44.4036 38.2075 39.7667 38.4833 34.1729C38.5803 32.2065 38.6534 30.4145 38.6534 28.4266C38.6534 26.214 38.5724 24.1807 38.4673 22.0198C38.1948 16.417 33.8272 11.7529 28.0949 11.4928C27.3746 11.4601 26.6632 11.4399 26.0001 11.4399C25.3634 11.4399 24.6825 11.4585 23.9921 11.4889Z" fill="white"/>
    <path d="M202.295 12.8897C201.316 13.8553 199.852 14.2734 197.923 14.2734C196.001 14.2734 194.496 13.8553 193.546 12.8897C192.568 11.9594 192.122 10.5286 192.122 8.68571V8.4502H195.251V8.68571C195.251 9.67488 195.469 10.3108 195.835 10.6582L195.847 10.6699C196.218 11.0527 196.905 11.2411 197.918 11.2411C198.931 11.2411 199.583 11.0527 199.955 10.6699L199.966 10.6582C200.344 10.3108 200.59 9.669 200.59 8.68571V8.4502H203.72V8.68571C203.72 10.5345 203.233 11.9653 202.295 12.8897Z" fill="white"/>
    <path fill-rule="evenodd" clip-rule="evenodd" d="M181.851 31.4896C182.155 31.0716 182.361 30.5476 182.504 29.8528L182.549 29.6585H186.188L186.148 29.9293C185.965 31.1187 185.628 32.1373 185.09 32.9616C184.563 33.8154 183.917 34.4866 183.116 34.993C182.321 35.4993 181.417 35.8467 180.41 36.0763C179.362 36.306 178.247 36.3825 177.028 36.3825C175.512 36.3825 174.173 36.2294 172.977 35.882C171.776 35.5759 170.717 34.993 169.882 34.2099C169.046 33.4209 168.406 32.3669 167.954 31.0598C167.502 29.7821 167.278 28.1747 167.278 26.2729C167.278 24.3299 167.496 22.6813 167.948 21.3683C168.394 20.0612 169.035 18.9719 169.87 18.1476L169.876 18.1417C170.706 17.3645 171.73 16.7816 172.931 16.4342H172.937C174.127 16.128 175.466 15.9396 176.948 15.9396C179.769 15.9396 182.023 16.6697 183.688 18.1476C185.324 19.6431 186.143 21.8982 186.143 24.8834V27.6448H170.946C170.969 28.7282 171.14 29.6291 171.404 30.3003C171.684 31.0186 172.102 31.5897 172.617 32.0137C173.132 32.4435 173.755 32.7261 174.493 32.8733C175.249 33.0205 176.078 33.097 177.017 33.097C177.743 33.097 178.39 33.0617 179.031 32.9499H179.042C179.631 32.8733 180.158 32.6967 180.65 32.4435L180.656 32.4376H180.661C181.13 32.2315 181.502 31.9195 181.851 31.4896ZM172.76 20.2908C172.245 20.6794 171.827 21.2152 171.512 21.9335C171.221 22.5989 171.043 23.435 170.986 24.5066H182.418C182.401 23.5056 182.258 22.7049 182 22.0395C181.72 21.3153 181.371 20.7854 180.896 20.3615C180.415 19.967 179.86 19.6843 179.197 19.5018C178.516 19.3546 177.76 19.2428 176.942 19.2428C176.078 19.2428 175.323 19.3193 174.608 19.4665C173.91 19.6078 173.28 19.8963 172.76 20.2908Z" fill="white"/>
    <path d="M211.936 29.4583C212.004 28.6752 212.079 27.6684 212.079 26.3966V16.5166H227.401V35.829H223.722V19.8139H215.649V26.8499C215.649 29.8822 215.209 32.155 214.373 33.6034C213.515 35.1225 212.113 35.829 210.219 35.829H209.407V32.3434H209.636C210.093 32.3434 210.454 32.2668 210.734 32.1079L210.746 32.102L210.751 32.0961C211.015 31.9783 211.278 31.6898 211.484 31.2659C211.684 30.8478 211.827 30.2767 211.936 29.4583Z" fill="white"/>
    <path d="M161.368 29.4053C161.225 30.1708 160.979 30.7772 160.676 31.2365C160.327 31.737 159.949 32.0902 159.503 32.3729C159.016 32.6555 158.496 32.838 157.895 32.944C157.254 33.0558 156.608 33.0912 155.881 33.0912C154.902 33.0912 154.044 33.0146 153.295 32.8321C152.522 32.6496 151.904 32.3316 151.429 31.8429L151.424 31.837C150.909 31.3425 150.525 30.6654 150.239 29.7881C149.959 28.9166 149.81 27.7391 149.81 26.2847C149.81 24.7951 149.953 23.6116 150.239 22.6637C150.525 21.7451 150.909 21.0327 151.424 20.544L151.429 20.5381C151.904 20.0494 152.522 19.7256 153.295 19.5489C154.044 19.3664 154.908 19.2545 155.881 19.2545C156.556 19.2545 157.203 19.3252 157.786 19.4017C158.347 19.5136 158.868 19.6903 159.354 19.9729C159.8 20.2555 160.184 20.6147 160.533 21.0798C160.842 21.5391 161.088 22.1102 161.225 22.8344L161.259 23.0228H164.944L164.892 22.7461C164.669 21.4861 164.332 20.3968 163.8 19.5313C163.273 18.6775 162.627 17.9769 161.871 17.4293L161.866 17.4234C161.11 16.917 160.201 16.5284 159.194 16.2988C158.152 16.0692 157.071 15.9573 155.887 15.9573C154.365 15.9573 153.031 16.1457 151.841 16.4519H151.836C150.634 16.7993 149.576 17.3822 148.74 18.1594L148.735 18.1653C147.899 18.9896 147.258 20.0789 146.812 21.386C146.36 22.699 146.143 24.3476 146.143 26.2906C146.143 28.1924 146.366 29.7998 146.812 31.0775C147.258 32.3846 147.905 33.4386 148.74 34.2275C149.576 35.0106 150.634 35.5935 151.836 35.8997C153.031 36.2471 154.37 36.4002 155.887 36.4002C157.111 36.4002 158.227 36.2883 159.268 36.0587C160.281 35.8291 161.185 35.4405 161.98 34.8929C162.781 34.3453 163.422 33.6446 163.954 32.7497C164.486 31.8842 164.824 30.7949 165.013 29.4937L165.053 29.2228H161.414L161.368 29.4053Z" fill="white"/>
    <path d="M245.264 29.4053L245.299 29.211V29.2228H248.949L248.909 29.4937C248.72 30.7949 248.383 31.8842 247.851 32.7497C247.319 33.6446 246.678 34.3453 245.877 34.8929C245.081 35.4405 244.177 35.8291 243.165 36.0587C242.123 36.2883 241.008 36.4002 239.783 36.4002C238.267 36.4002 236.928 36.2471 235.732 35.8997C234.531 35.5935 233.472 35.0106 232.637 34.2275C231.801 33.4386 231.161 32.3846 230.709 31.0775C230.262 29.7998 230.039 28.1924 230.039 26.2906C230.039 24.3476 230.257 22.699 230.709 21.386C231.155 20.0789 231.796 18.9896 232.631 18.1653L232.637 18.1594C233.472 17.3822 234.531 16.7993 235.732 16.4519H235.738C236.928 16.1457 238.261 15.9573 239.783 15.9573C240.968 15.9573 242.049 16.0692 243.09 16.2988C244.103 16.5284 245.007 16.917 245.762 17.4234L245.768 17.4293C246.523 17.9769 247.17 18.6775 247.696 19.5313C248.228 20.3968 248.566 21.4861 248.789 22.7461L248.84 23.0228H245.156L245.121 22.8344C244.984 22.1102 244.738 21.5391 244.429 21.0798C244.08 20.6147 243.697 20.2555 243.25 19.9729C242.764 19.6903 242.243 19.5136 241.683 19.4017C241.099 19.3252 240.453 19.2545 239.777 19.2545C238.805 19.2545 237.941 19.3664 237.191 19.5489C236.419 19.7256 235.801 20.0494 235.326 20.5381L235.32 20.544C234.805 21.0327 234.422 21.7451 234.136 22.6637C233.85 23.6116 233.707 24.7951 233.707 26.2847C233.707 27.7391 233.856 28.9166 234.136 29.7881C234.422 30.6654 234.805 31.3425 235.32 31.837L235.326 31.8429C235.801 32.3316 236.419 32.6496 237.191 32.8321C237.941 33.0146 238.799 33.0912 239.777 33.0912C240.504 33.0912 241.151 33.0558 241.791 32.944C242.392 32.838 242.913 32.6555 243.399 32.3729C243.846 32.0902 244.223 31.737 244.572 31.2365C244.875 30.7772 245.121 30.1708 245.264 29.4053Z" fill="white"/>
    <path fill-rule="evenodd" clip-rule="evenodd" d="M140.69 17.5765C139.174 16.4813 137.068 15.9514 134.442 15.9514C133.183 15.9514 132.033 16.0633 131.06 16.2988C130.048 16.5284 129.178 16.917 128.457 17.4293L128.451 17.4352C127.725 17.9886 127.152 18.6893 126.7 19.5489C126.243 20.4145 125.945 21.4978 125.796 22.7637L125.768 23.0287H129.338L129.367 22.8285C129.475 22.0925 129.647 21.5214 129.922 21.068L129.933 21.0562C130.173 20.597 130.477 20.2496 130.883 19.9729C131.289 19.6961 131.77 19.5136 132.365 19.4076C132.943 19.3311 133.664 19.2604 134.453 19.2604C136.267 19.2604 137.486 19.596 138.235 20.1554C138.962 20.6971 139.351 21.6274 139.351 23.0169V24.3476C138.925 24.3424 138.535 24.3141 138.166 24.2872L138.023 24.2769H138.001C137.537 24.2769 137.068 24.2416 136.593 24.2004H136.57C136.324 24.2004 136.084 24.1945 135.826 24.1827H135.803C135.54 24.171 135.26 24.1651 134.962 24.1651C134.688 24.1651 134.407 24.1592 134.104 24.1474H134.053C133.732 24.1356 133.389 24.1297 133.023 24.1297C131.432 24.1297 130.122 24.3182 129.103 24.6714H129.098C128.091 25.0541 127.29 25.5193 126.712 26.1199C126.1 26.7145 125.71 27.3858 125.482 28.0982C125.253 28.8048 125.178 29.5113 125.178 30.1708C125.178 31.2777 125.327 32.261 125.71 33.0617C126.054 33.8448 126.552 34.5161 127.21 34.993C127.828 35.5052 128.588 35.8585 129.452 36.0881C130.322 36.3236 131.26 36.4002 132.29 36.4002C133.852 36.4002 135.283 36.1293 136.564 35.5111C137.806 34.9105 138.739 33.9744 139.351 32.7202V35.8349H143.03V23.0051C143.024 20.5381 142.235 18.6834 140.69 17.5765ZM139.345 28.9873C139.277 29.8646 139.059 30.5711 138.727 31.0893C138.378 31.6251 137.932 32.049 137.388 32.3257C136.822 32.6142 136.187 32.8321 135.477 32.944C134.756 33.0558 134.076 33.0912 133.349 33.0912C131.747 33.0912 130.591 32.8674 129.876 32.4435C129.206 32.049 128.857 31.3189 128.857 30.1237C128.857 29.7233 128.892 29.3406 129.023 29.0049L129.035 28.9814C129.126 28.6576 129.349 28.322 129.721 28.0511L129.733 28.0393C130.059 27.7744 130.597 27.5565 131.323 27.3681C132.039 27.2209 133.046 27.109 134.276 27.109C134.625 27.109 134.985 27.1149 135.369 27.1267H135.42C135.821 27.1385 136.244 27.1444 136.685 27.1444C137.503 27.1797 138.407 27.215 139.351 27.2503V28.9873H139.345Z" fill="white"/>
    <path fill-rule="evenodd" clip-rule="evenodd" d="M97.7888 26.0727C99.1105 26.2435 100.186 26.6203 100.97 27.2739C101.765 28.0099 102.183 29.0991 102.177 30.5829C102.177 31.3365 102.023 32.0019 101.794 32.626C101.559 33.2678 101.17 33.8271 100.632 34.3041C100.1 34.7751 99.4538 35.1696 98.6928 35.4404H98.6871C97.8861 35.7172 96.982 35.829 95.9407 35.829H85.2412V16.5166H95.1397C96.3298 16.5166 97.3482 16.6697 98.1779 16.9406H98.1893C99.0132 17.2467 99.6655 17.6 100.203 18.0769C100.735 18.5539 101.13 19.072 101.365 19.6784C101.594 20.2672 101.708 20.8619 101.708 21.4978C101.708 22.8933 101.33 24.0179 100.615 24.7538L100.61 24.7597C99.9115 25.4427 98.9732 25.8667 97.7888 26.008V26.0727ZM94.8879 19.8139H88.9259V24.5007H95.5516C96.5472 24.5007 97.1937 24.2475 97.5313 23.8059C97.8689 23.3172 98.0691 22.7637 98.0691 22.0631C98.0691 21.7157 98.0062 21.4036 97.9318 21.1033C97.8746 20.8737 97.7316 20.6853 97.5199 20.4674C97.3024 20.279 96.982 20.1377 96.5472 19.9905C96.1295 19.8845 95.5631 19.8139 94.8879 19.8139ZM95.214 32.5318C96.2554 32.5318 97.0564 32.3493 97.6686 31.996C98.2351 31.6722 98.5383 31.0834 98.5383 30.1649C98.5383 29.423 98.3323 28.8401 97.9318 28.3573C97.5599 27.9157 96.7761 27.6507 95.5058 27.6507H88.9259V32.5318H95.214Z" fill="white"/>
    <path d="M108.74 29.5113V16.5166H105.055V35.829H107.218L118.536 22.9757V35.829H122.215V16.5166H120.052L108.74 29.5113Z" fill="white"/>
    <path fill-rule="evenodd" clip-rule="evenodd" d="M72.974 15.9514C75.6003 15.9514 77.7058 16.4813 79.2221 17.5765C80.7612 18.6834 81.5508 20.5381 81.5508 23.0051V35.8291H77.8718V32.7143C77.2595 33.9685 76.3326 34.9047 75.0853 35.5052C73.8037 36.1235 72.3732 36.3943 70.8112 36.3943C69.7813 36.3943 68.843 36.3178 67.9733 36.0822C67.1093 35.8526 66.3483 35.4993 65.7304 34.9871C65.0724 34.5102 64.5746 33.8389 64.2313 33.0558C63.848 32.2551 63.6992 31.2718 63.6992 30.1649C63.6992 29.5054 63.7736 28.7989 64.0025 28.0923C64.2313 27.3799 64.6204 26.7087 65.2326 26.114C65.8162 25.5193 66.6173 25.0541 67.6128 24.6714H67.6186C68.637 24.3182 69.9473 24.1297 71.5379 24.1297C71.9041 24.1297 72.2474 24.1356 72.5678 24.1474H72.6193C72.9225 24.1592 73.2029 24.1651 73.4775 24.1651C73.7751 24.1651 74.0554 24.171 74.3186 24.1827H74.3415C74.599 24.1945 74.8393 24.2004 75.0853 24.2004H75.1082C75.5888 24.2416 76.058 24.2769 76.5214 24.2769H76.5443L76.6865 24.2872C77.0563 24.3141 77.4461 24.3424 77.8718 24.3476V23.0051C77.8718 21.6156 77.4827 20.6853 76.756 20.1436C76.0065 19.5843 74.7878 19.2487 72.974 19.2487C72.1844 19.2487 71.4635 19.3193 70.8856 19.3959C70.2848 19.5018 69.8099 19.6844 69.4037 19.9611C68.9975 20.2378 68.6942 20.5852 68.4539 21.0445L68.4482 21.0504V21.0621C68.1793 21.5155 68.0019 22.0866 67.8932 22.8226L67.8646 23.0228H64.2943L64.3229 22.7579C64.4716 21.492 64.7692 20.4086 65.2269 19.543C65.6789 18.6834 66.2511 17.9827 66.9777 17.4293L66.9834 17.4234C67.7044 16.9111 68.5741 16.5284 69.5925 16.2988C70.5652 16.0633 71.7153 15.9514 72.974 15.9514ZM77.2538 31.0893C77.5857 30.5711 77.7974 29.8646 77.8718 28.9873H77.8775V27.2503C76.9334 27.215 76.0237 27.1797 75.2112 27.1444C74.7706 27.1444 74.3472 27.1385 73.9467 27.1267H73.8952C73.5119 27.1149 73.1514 27.109 72.8024 27.109C71.5722 27.109 70.5652 27.2209 69.85 27.3681C69.1233 27.5565 68.5855 27.7744 68.2594 28.0393L68.2479 28.0511C67.876 28.322 67.6529 28.6576 67.5613 28.9814L67.5499 29.0049C67.4183 29.3406 67.384 29.7233 67.384 30.1237C67.384 31.3189 67.733 32.049 68.4024 32.4435C69.1176 32.8674 70.2734 33.0912 71.8755 33.0912C72.6021 33.0912 73.283 33.0558 74.0039 32.944C74.7134 32.8321 75.3485 32.6142 75.915 32.3257C76.4585 32.049 76.9105 31.6251 77.2538 31.0893Z" fill="white"/>
    <path d="M193.026 29.5113V16.5166H189.347V35.829H191.504L202.821 22.9757V35.829H206.5V16.5166H204.338L193.026 29.5113Z" fill="white"/>
  </g>
  <defs>
    <clipPath id="clip0_148_5630">
      <rect width="248.95" height="52" fill="white"/>
    </clipPath>
  </defs>
</svg>